<mxfile host="app.diagrams.net" modified="2024-02-25T19:05:17.700Z" agent="Mozilla/5.0 (Macintosh; Intel Mac OS X 10_15_7) AppleWebKit/537.36 (KHTML, like Gecko) Chrome/121.0.0.0 Safari/537.36" etag="b9IN3QkF7tyX60fTcMr0" version="23.1.6" type="device">
  <diagram name="Página-1" id="oHYfnEX8kNg7gkCx5J6K">
    <mxGraphModel dx="1061" dy="548" grid="1" gridSize="10" guides="1" tooltips="1" connect="1" arrows="1" fold="1" page="1" pageScale="1" pageWidth="827" pageHeight="1169" math="0" shadow="0">
      <root>
        <mxCell id="0" />
        <mxCell id="1" parent="0" />
        <mxCell id="0_VJHjCuRp2BcXTrTzfY-1" value="Servidor FastAPI (main.py)" style="rounded=0;whiteSpace=wrap;html=1;" vertex="1" parent="1">
          <mxGeometry x="560" y="370" width="160" height="60" as="geometry" />
        </mxCell>
        <mxCell id="0_VJHjCuRp2BcXTrTzfY-14" value="" style="edgeStyle=orthogonalEdgeStyle;rounded=0;orthogonalLoop=1;jettySize=auto;html=1;" edge="1" parent="1" source="0_VJHjCuRp2BcXTrTzfY-2" target="0_VJHjCuRp2BcXTrTzfY-13">
          <mxGeometry relative="1" as="geometry" />
        </mxCell>
        <mxCell id="0_VJHjCuRp2BcXTrTzfY-15" value="Almacena datos scrapeados" style="edgeLabel;html=1;align=center;verticalAlign=middle;resizable=0;points=[];" vertex="1" connectable="0" parent="0_VJHjCuRp2BcXTrTzfY-14">
          <mxGeometry x="-0.161" y="-1" relative="1" as="geometry">
            <mxPoint as="offset" />
          </mxGeometry>
        </mxCell>
        <mxCell id="0_VJHjCuRp2BcXTrTzfY-2" value="Scraper (scraper.py)" style="rounded=0;whiteSpace=wrap;html=1;align=center;" vertex="1" parent="1">
          <mxGeometry x="320" y="370" width="120" height="60" as="geometry" />
        </mxCell>
        <mxCell id="0_VJHjCuRp2BcXTrTzfY-5" value="API de OpenAI" style="ellipse;shape=cloud;whiteSpace=wrap;html=1;" vertex="1" parent="1">
          <mxGeometry x="720" y="560" width="120" height="80" as="geometry" />
        </mxCell>
        <mxCell id="0_VJHjCuRp2BcXTrTzfY-6" value="Pinecone" style="ellipse;shape=cloud;whiteSpace=wrap;html=1;" vertex="1" parent="1">
          <mxGeometry x="130" y="560" width="120" height="80" as="geometry" />
        </mxCell>
        <mxCell id="0_VJHjCuRp2BcXTrTzfY-9" style="edgeStyle=orthogonalEdgeStyle;rounded=0;orthogonalLoop=1;jettySize=auto;html=1;entryX=0.5;entryY=0;entryDx=0;entryDy=0;" edge="1" parent="1" source="0_VJHjCuRp2BcXTrTzfY-7" target="0_VJHjCuRp2BcXTrTzfY-1">
          <mxGeometry relative="1" as="geometry" />
        </mxCell>
        <mxCell id="0_VJHjCuRp2BcXTrTzfY-10" value="envía pregunta" style="edgeLabel;html=1;align=center;verticalAlign=middle;resizable=0;points=[];" vertex="1" connectable="0" parent="0_VJHjCuRp2BcXTrTzfY-9">
          <mxGeometry x="-0.0143" y="3" relative="1" as="geometry">
            <mxPoint as="offset" />
          </mxGeometry>
        </mxCell>
        <mxCell id="0_VJHjCuRp2BcXTrTzfY-11" style="edgeStyle=orthogonalEdgeStyle;rounded=0;orthogonalLoop=1;jettySize=auto;html=1;" edge="1" parent="1" source="0_VJHjCuRp2BcXTrTzfY-7" target="0_VJHjCuRp2BcXTrTzfY-2">
          <mxGeometry relative="1" as="geometry" />
        </mxCell>
        <mxCell id="0_VJHjCuRp2BcXTrTzfY-12" value="ejecuta script para scrap" style="edgeLabel;html=1;align=center;verticalAlign=middle;resizable=0;points=[];" vertex="1" connectable="0" parent="0_VJHjCuRp2BcXTrTzfY-11">
          <mxGeometry x="0.35" y="-1" relative="1" as="geometry">
            <mxPoint as="offset" />
          </mxGeometry>
        </mxCell>
        <mxCell id="0_VJHjCuRp2BcXTrTzfY-7" value="Cliente" style="rounded=0;whiteSpace=wrap;html=1;" vertex="1" parent="1">
          <mxGeometry x="580" y="170" width="120" height="60" as="geometry" />
        </mxCell>
        <mxCell id="0_VJHjCuRp2BcXTrTzfY-42" style="edgeStyle=orthogonalEdgeStyle;rounded=0;orthogonalLoop=1;jettySize=auto;html=1;entryX=0.25;entryY=1;entryDx=0;entryDy=0;" edge="1" parent="1" source="0_VJHjCuRp2BcXTrTzfY-8" target="0_VJHjCuRp2BcXTrTzfY-2">
          <mxGeometry relative="1" as="geometry">
            <Array as="points">
              <mxPoint x="105" y="450" />
              <mxPoint x="350" y="450" />
            </Array>
          </mxGeometry>
        </mxCell>
        <mxCell id="0_VJHjCuRp2BcXTrTzfY-43" value="Devuelve datos scrapeados" style="edgeLabel;html=1;align=center;verticalAlign=middle;resizable=0;points=[];" vertex="1" connectable="0" parent="0_VJHjCuRp2BcXTrTzfY-42">
          <mxGeometry x="-0.1281" y="-2" relative="1" as="geometry">
            <mxPoint x="31" as="offset" />
          </mxGeometry>
        </mxCell>
        <mxCell id="0_VJHjCuRp2BcXTrTzfY-8" value="Chromedriver" style="whiteSpace=wrap;html=1;shape=mxgraph.basic.document" vertex="1" parent="1">
          <mxGeometry x="60" y="370" width="90" height="60" as="geometry" />
        </mxCell>
        <mxCell id="0_VJHjCuRp2BcXTrTzfY-34" style="edgeStyle=orthogonalEdgeStyle;rounded=0;orthogonalLoop=1;jettySize=auto;html=1;exitX=0.855;exitY=0;exitDx=0;exitDy=4.35;exitPerimeter=0;entryX=0;entryY=0.5;entryDx=0;entryDy=0;" edge="1" parent="1" source="0_VJHjCuRp2BcXTrTzfY-13" target="0_VJHjCuRp2BcXTrTzfY-1">
          <mxGeometry relative="1" as="geometry">
            <Array as="points">
              <mxPoint x="510" y="544" />
              <mxPoint x="510" y="400" />
            </Array>
          </mxGeometry>
        </mxCell>
        <mxCell id="0_VJHjCuRp2BcXTrTzfY-35" value="Devuelve la pregunta &lt;br&gt;vectorizada y vectores&lt;br&gt;similares" style="edgeLabel;html=1;align=center;verticalAlign=middle;resizable=0;points=[];" vertex="1" connectable="0" parent="0_VJHjCuRp2BcXTrTzfY-34">
          <mxGeometry x="0.1748" y="2" relative="1" as="geometry">
            <mxPoint as="offset" />
          </mxGeometry>
        </mxCell>
        <mxCell id="0_VJHjCuRp2BcXTrTzfY-13" value="Base de Datos Vectorial (vector_db.py)" style="shape=cylinder3;whiteSpace=wrap;html=1;boundedLbl=1;backgroundOutline=1;size=15;" vertex="1" parent="1">
          <mxGeometry x="410" y="540" width="130" height="100" as="geometry" />
        </mxCell>
        <mxCell id="0_VJHjCuRp2BcXTrTzfY-16" style="edgeStyle=orthogonalEdgeStyle;rounded=0;orthogonalLoop=1;jettySize=auto;html=1;entryX=1;entryY=0.5;entryDx=0;entryDy=0;entryPerimeter=0;" edge="1" parent="1" source="0_VJHjCuRp2BcXTrTzfY-2" target="0_VJHjCuRp2BcXTrTzfY-8">
          <mxGeometry relative="1" as="geometry" />
        </mxCell>
        <mxCell id="0_VJHjCuRp2BcXTrTzfY-17" value="Controla navegador &lt;br&gt;para scraping" style="edgeLabel;html=1;align=center;verticalAlign=middle;resizable=0;points=[];" vertex="1" connectable="0" parent="0_VJHjCuRp2BcXTrTzfY-16">
          <mxGeometry x="-0.0375" y="1" relative="1" as="geometry">
            <mxPoint as="offset" />
          </mxGeometry>
        </mxCell>
        <mxCell id="0_VJHjCuRp2BcXTrTzfY-26" style="edgeStyle=orthogonalEdgeStyle;rounded=0;orthogonalLoop=1;jettySize=auto;html=1;entryX=0.045;entryY=0.491;entryDx=0;entryDy=0;entryPerimeter=0;" edge="1" parent="1" source="0_VJHjCuRp2BcXTrTzfY-13" target="0_VJHjCuRp2BcXTrTzfY-5">
          <mxGeometry relative="1" as="geometry" />
        </mxCell>
        <mxCell id="0_VJHjCuRp2BcXTrTzfY-27" value="Vectoriza el&lt;br&gt;texto" style="edgeLabel;html=1;align=center;verticalAlign=middle;resizable=0;points=[];" vertex="1" connectable="0" parent="0_VJHjCuRp2BcXTrTzfY-26">
          <mxGeometry x="-0.0904" y="-4" relative="1" as="geometry">
            <mxPoint x="2" as="offset" />
          </mxGeometry>
        </mxCell>
        <mxCell id="0_VJHjCuRp2BcXTrTzfY-28" style="edgeStyle=orthogonalEdgeStyle;rounded=0;orthogonalLoop=1;jettySize=auto;html=1;entryX=0.937;entryY=0.372;entryDx=0;entryDy=0;entryPerimeter=0;" edge="1" parent="1" source="0_VJHjCuRp2BcXTrTzfY-13" target="0_VJHjCuRp2BcXTrTzfY-6">
          <mxGeometry relative="1" as="geometry" />
        </mxCell>
        <mxCell id="0_VJHjCuRp2BcXTrTzfY-29" value="Guarda los vectores &lt;br&gt;en la db" style="edgeLabel;html=1;align=center;verticalAlign=middle;resizable=0;points=[];" vertex="1" connectable="0" parent="0_VJHjCuRp2BcXTrTzfY-28">
          <mxGeometry x="-0.0757" relative="1" as="geometry">
            <mxPoint x="4" as="offset" />
          </mxGeometry>
        </mxCell>
        <mxCell id="0_VJHjCuRp2BcXTrTzfY-30" style="edgeStyle=orthogonalEdgeStyle;rounded=0;orthogonalLoop=1;jettySize=auto;html=1;entryX=0.5;entryY=1;entryDx=0;entryDy=0;entryPerimeter=0;" edge="1" parent="1" source="0_VJHjCuRp2BcXTrTzfY-6" target="0_VJHjCuRp2BcXTrTzfY-13">
          <mxGeometry relative="1" as="geometry">
            <Array as="points">
              <mxPoint x="190" y="660" />
              <mxPoint x="475" y="660" />
            </Array>
          </mxGeometry>
        </mxCell>
        <mxCell id="0_VJHjCuRp2BcXTrTzfY-31" value="Devuelve vectores &lt;br&gt;de la query" style="edgeLabel;html=1;align=center;verticalAlign=middle;resizable=0;points=[];" vertex="1" connectable="0" parent="0_VJHjCuRp2BcXTrTzfY-30">
          <mxGeometry x="0.0516" relative="1" as="geometry">
            <mxPoint as="offset" />
          </mxGeometry>
        </mxCell>
        <mxCell id="0_VJHjCuRp2BcXTrTzfY-32" style="edgeStyle=orthogonalEdgeStyle;rounded=0;orthogonalLoop=1;jettySize=auto;html=1;exitX=0.5;exitY=1;exitDx=0;exitDy=0;entryX=1;entryY=0;entryDx=0;entryDy=32.5;entryPerimeter=0;" edge="1" parent="1" source="0_VJHjCuRp2BcXTrTzfY-1" target="0_VJHjCuRp2BcXTrTzfY-13">
          <mxGeometry relative="1" as="geometry" />
        </mxCell>
        <mxCell id="0_VJHjCuRp2BcXTrTzfY-33" value="Vecotoriza la pregunta&lt;br&gt;y hace la query" style="edgeLabel;html=1;align=center;verticalAlign=middle;resizable=0;points=[];" vertex="1" connectable="0" parent="0_VJHjCuRp2BcXTrTzfY-32">
          <mxGeometry x="-0.4108" relative="1" as="geometry">
            <mxPoint as="offset" />
          </mxGeometry>
        </mxCell>
        <mxCell id="0_VJHjCuRp2BcXTrTzfY-36" style="edgeStyle=orthogonalEdgeStyle;rounded=0;orthogonalLoop=1;jettySize=auto;html=1;exitX=0.13;exitY=0.77;exitDx=0;exitDy=0;exitPerimeter=0;entryX=1;entryY=0.755;entryDx=0;entryDy=0;entryPerimeter=0;" edge="1" parent="1" source="0_VJHjCuRp2BcXTrTzfY-5" target="0_VJHjCuRp2BcXTrTzfY-13">
          <mxGeometry relative="1" as="geometry">
            <Array as="points">
              <mxPoint x="676" y="620" />
              <mxPoint x="540" y="620" />
            </Array>
          </mxGeometry>
        </mxCell>
        <mxCell id="0_VJHjCuRp2BcXTrTzfY-37" value="Devuelve el texto" style="edgeLabel;html=1;align=center;verticalAlign=middle;resizable=0;points=[];" vertex="1" connectable="0" parent="0_VJHjCuRp2BcXTrTzfY-36">
          <mxGeometry x="0.0031" y="-1" relative="1" as="geometry">
            <mxPoint as="offset" />
          </mxGeometry>
        </mxCell>
        <mxCell id="0_VJHjCuRp2BcXTrTzfY-38" style="edgeStyle=orthogonalEdgeStyle;rounded=0;orthogonalLoop=1;jettySize=auto;html=1;exitX=1;exitY=0.5;exitDx=0;exitDy=0;entryX=0.88;entryY=0.25;entryDx=0;entryDy=0;entryPerimeter=0;" edge="1" parent="1" source="0_VJHjCuRp2BcXTrTzfY-1" target="0_VJHjCuRp2BcXTrTzfY-5">
          <mxGeometry relative="1" as="geometry" />
        </mxCell>
        <mxCell id="0_VJHjCuRp2BcXTrTzfY-39" value="Hace la pregunta y le pasa &lt;br&gt;documento con info asociada" style="edgeLabel;html=1;align=center;verticalAlign=middle;resizable=0;points=[];" vertex="1" connectable="0" parent="0_VJHjCuRp2BcXTrTzfY-38">
          <mxGeometry x="0.1636" y="1" relative="1" as="geometry">
            <mxPoint as="offset" />
          </mxGeometry>
        </mxCell>
        <mxCell id="0_VJHjCuRp2BcXTrTzfY-40" style="edgeStyle=orthogonalEdgeStyle;rounded=0;orthogonalLoop=1;jettySize=auto;html=1;exitX=0.4;exitY=0.1;exitDx=0;exitDy=0;exitPerimeter=0;entryX=0.951;entryY=1.051;entryDx=0;entryDy=0;entryPerimeter=0;" edge="1" parent="1" source="0_VJHjCuRp2BcXTrTzfY-5" target="0_VJHjCuRp2BcXTrTzfY-1">
          <mxGeometry relative="1" as="geometry">
            <Array as="points">
              <mxPoint x="712" y="568" />
            </Array>
          </mxGeometry>
        </mxCell>
        <mxCell id="0_VJHjCuRp2BcXTrTzfY-41" value="Devuelve la respuesta" style="edgeLabel;html=1;align=center;verticalAlign=middle;resizable=0;points=[];" vertex="1" connectable="0" parent="0_VJHjCuRp2BcXTrTzfY-40">
          <mxGeometry x="-0.4582" relative="1" as="geometry">
            <mxPoint x="14" y="-38" as="offset" />
          </mxGeometry>
        </mxCell>
      </root>
    </mxGraphModel>
  </diagram>
</mxfile>
